<svg width="23" height="22" viewBox="0 0 23 22" fill="none" xmlns="http://www.w3.org/2000/svg">
<g filter="url(#filter0_d_59466_87)">
<path d="M19.1666 9.54079H21.0833C21.0833 4.62454 17.3717 0.916748 12.4487 0.916748V2.83341C16.3415 2.83341 19.1666 5.65379 19.1666 9.54079Z" fill="#BDBDBD"/>
<path d="M12.4584 6.66657C14.4737 6.66657 15.3334 7.5262 15.3334 9.54157H17.25C17.25 6.45095 15.549 4.7499 12.4584 4.7499V6.66657ZM15.7378 11.8828C15.5536 11.7154 15.3116 11.6261 15.0629 11.6338C14.8142 11.6415 14.5782 11.7456 14.4047 11.924L12.1114 14.2824C11.5594 14.177 10.4497 13.8311 9.30736 12.6916C8.16503 11.5483 7.81907 10.4357 7.71653 9.88753L10.0731 7.59328C10.2517 7.41994 10.3559 7.1839 10.3636 6.9351C10.3713 6.6863 10.2819 6.44428 10.1143 6.26024L6.57323 2.36653C6.40557 2.18191 6.17254 2.06993 5.92363 2.05436C5.67473 2.03879 5.42956 2.12087 5.24019 2.28315L3.16061 4.06661C2.99492 4.2329 2.89603 4.45421 2.88269 4.68857C2.86832 4.92815 2.59423 10.6034 6.9949 15.006C10.834 18.8441 15.6429 19.1249 16.9673 19.1249C17.1609 19.1249 17.2797 19.1192 17.3114 19.1172C17.5457 19.1041 17.7669 19.0048 17.9324 18.8384L19.7149 16.7578C19.8773 16.5686 19.9595 16.3235 19.9441 16.0746C19.9287 15.8257 19.8169 15.5926 19.6324 15.4248L15.7378 11.8828Z" fill="#BDBDBD"/>
</g>
<defs>
<filter id="filter0_d_59466_87" x="-1.12524" y="0.916748" width="26.2086" height="26.2083" filterUnits="userSpaceOnUse" color-interpolation-filters="sRGB">
<feFlood flood-opacity="0" result="BackgroundImageFix"/>
<feColorMatrix in="SourceAlpha" type="matrix" values="0 0 0 0 0 0 0 0 0 0 0 0 0 0 0 0 0 0 127 0" result="hardAlpha"/>
<feOffset dy="4"/>
<feGaussianBlur stdDeviation="2"/>
<feComposite in2="hardAlpha" operator="out"/>
<feColorMatrix type="matrix" values="0 0 0 0 0 0 0 0 0 0 0 0 0 0 0 0 0 0 0.25 0"/>
<feBlend mode="normal" in2="BackgroundImageFix" result="effect1_dropShadow_59466_87"/>
<feBlend mode="normal" in="SourceGraphic" in2="effect1_dropShadow_59466_87" result="shape"/>
</filter>
</defs>
</svg>
